# Blender 3.3.1
# www.blender.org
mtllib Corners.mtl
o Cube
v -0.779585 7.029821 2.091328
v 0.506854 7.014286 2.091328
v -0.779585 7.029821 -2.081651
v 0.506854 7.014286 -2.081651
v -0.831207 2.755055 2.091328
v 0.455231 2.739520 2.091328
v 0.499781 6.428632 -2.081651
v -0.786657 6.444167 -2.081651
v 0.455231 2.739520 1.644413
v -0.831207 2.755055 1.644413
v -0.786649 6.444816 -2.075063
v -0.790073 6.161302 -0.650370
v -0.794229 5.817117 -0.006730
v -0.787513 6.373250 -1.348761
v -0.806639 4.789519 1.020415
v -0.799823 5.353923 0.557425
v -0.822853 3.446896 1.576302
v -0.814415 4.145595 1.364448
v 0.498925 6.357715 -1.348761
v 0.499789 6.429281 -2.075063
v 0.496365 6.145767 -0.650370
v 0.492209 5.801582 -0.006730
v 0.486615 5.338388 0.557425
v 0.479799 4.773983 1.020415
v 0.463586 3.431361 1.576302
v 0.472023 4.130059 1.364448
vn 0.0121 0.9999 -0.0000
vn -0.0000 -0.0000 -1.0000
vn -0.0121 -0.9999 -0.0000
vn -0.0000 -0.0000 1.0000
vn -0.9999 0.0121 -0.0000
vn 0.9999 -0.0121 -0.0000
vn -0.0012 -0.0980 -0.9952
vn -0.0035 -0.2901 -0.9570
vn -0.0057 -0.4712 -0.8820
vn -0.0077 -0.6342 -0.7732
vn -0.0093 -0.7728 -0.6346
vn -0.0106 -0.8818 -0.4716
vn -0.0116 -0.9568 -0.2904
vn -0.0120 -0.9951 -0.0981
vn -0.0120 -0.9951 0.0981
vt 0.375000 0.000000
vt 0.375000 1.000000
vt 0.125000 0.750000
vt 0.625000 0.000000
vt 0.625000 1.000000
vt 0.875000 0.750000
vt 0.375000 0.250000
vt 0.125000 0.500000
vt 0.625000 0.250000
vt 0.875000 0.500000
vt 0.375000 0.750000
vt 0.625000 0.750000
vt 0.625000 0.284251
vt 0.840749 0.500000
vt 0.249717 0.916929
vt 0.375000 0.284251
vt 0.159251 0.500000
vt 0.249716 0.551235
vt 0.625000 0.723226
vt 0.498504 0.916929
vt 0.375000 0.723226
vt 0.498504 0.551235
vt 0.159213 0.500395
vt 0.250000 0.551235
vt 0.175793 0.585747
vt 0.312500 0.551235
vt 0.195922 0.624307
vt 0.343750 0.551235
vt 0.163398 0.543907
vt 0.281250 0.551235
vt 0.256019 0.685842
vt 0.406250 0.551235
vt 0.223011 0.658105
vt 0.375000 0.551235
vt 0.334539 0.719145
vt 0.468750 0.551235
vt 0.293677 0.706453
vt 0.437500 0.551235
vt 0.836602 0.543907
vt 0.281250 0.916929
vt 0.840787 0.500395
vt 0.250000 0.916929
vt 0.824207 0.585747
vt 0.312500 0.916929
vt 0.804078 0.624307
vt 0.343750 0.916929
vt 0.776989 0.658105
vt 0.375000 0.916929
vt 0.743981 0.685842
vt 0.406250 0.916929
vt 0.665461 0.719145
vt 0.468750 0.916929
vt 0.706323 0.706453
vt 0.437500 0.916929
s 0
usemtl 
f 1/1/1 2/4/1 4/9/1 3/7/1
f 3/7/2 4/9/2 7/13/2 8/16/2
f 6/12/3 5/11/3 10/21/3 9/19/3
f 5/11/4 6/12/4 2/5/4 1/2/4
f 5/11/5 1/3/5 3/8/5 8/17/5 11/23/5 14/29/5 12/25/5 13/27/5 16/33/5 15/31/5 18/37/5 17/35/5 10/21/5
f 4/10/6 2/6/6 6/12/6 9/19/6 25/51/6 26/53/6 24/49/6 23/47/6 22/45/6 21/43/6 19/39/6 20/41/6 7/14/6
f 10/22/7 17/36/7 25/52/7 9/20/7
f 17/36/8 18/38/8 26/54/8 25/52/8
f 18/38/9 15/32/9 24/50/9 26/54/9
f 15/32/10 16/34/10 23/48/10 24/50/10
f 23/48/11 16/34/11 13/28/11 22/46/11
f 22/46/12 13/28/12 12/26/12 21/44/12
f 21/44/13 12/26/13 14/30/13 19/40/13
f 19/40/14 14/30/14 11/24/14 20/42/14
f 8/18/15 7/15/15 20/42/15 11/24/15
